:SAMPLES-PER-SECOND 30
:FULLY-SPECIFIED
:DEGREES
482
root  -64.2878 39.4316 -32.1604 21.4447 2.38152 1.09584
RightUpLeg  -48.2595 -27.6708 18.8523
RightLeg  24.7918 -2.68989 -1.59878
RightFoot  -3.57855 0.693046 -10.5296
RightToes  0.00048216 0.542163 -0.142577
Spine  64.4665 -5.09218 6.28127
Spine1  9.12233 1.14775 -8.40529
HEad  -48.9823 18.9556 -31.4644
LeftShoulder1  8.21544 -25.5058 -21.7968
LeftArm  -29.2911 -61.6937 -16.9601
LeftForeArm  23.9451 -2.05711 -4.51077
LeftHand  -0.25398 0.0180481 5.50724
RightShoulder  3.2515 12.1103 13.9283
RightArm  -20.9645 65.9794 30.8192
RightForeArm  -11.6838 14.9346 6.42583
RightHand  -6.1372 15.4414 -33.6813
LeftUpLeg  -49.2407 30.5952 -18.8486
LeftLeg  16.3374 5.36257 0.746657
LeftFoot  5.96634 -1.33719 8.52963
LeftToes  1.06244e-005 4.65854e-005 -8.18505e-006
483
root  -64.2802 39.702 -32.1942 19.2045 2.27689 1.10298
RightUpLeg  -44.3149 -28.486 17.5067
RightLeg  22.2859 -2.42033 -1.25851
RightFoot  -2.69581 0.763793 -10.3041
RightToes  0.00048216 0.542163 -0.142577
Spine  62.9722 -4.9115 6.46161
Spine1  9.00899 1.20397 -8.03438
HEad  -49.7725 20.9111 -34.1045
LeftShoulder1  9.00235 -24.9653 -25.2752
LeftArm  -23.8987 -55.6773 -20.8049
LeftForeArm  23.2238 -1.96866 -5.18141
LeftHand  -0.25398 0.0180481 5.50724
RightShoulder  3.61045 12.5153 15.8038
RightArm  -11.7122 61.8835 36.5692
RightForeArm  -9.7249 15.4211 6.77396
RightHand  -5.74944 14.7245 -32.7485
LeftUpLeg  -41.9952 25.8378 -11.049
LeftLeg  13.4743 13.1632 -0.682132
LeftFoot  7.05279 -1.3835 8.26101
LeftToes  1.06244e-005 4.65854e-005 -8.18505e-006
484
root  -64.2695 39.9308 -32.1936 17.1157 2.15135 1.0872
RightUpLeg  -40.162 -28.3416 15.2778
RightLeg  20.077 -3.35846 -0.6803
RightFoot  -1.95424 0.830712 -10.2409
RightToes  0.00048216 0.542163 -0.142577
Spine  61.2604 -4.56273 6.72485
Spine1  8.65317 1.3881 -7.53629
HEad  -50.2399 22.8542 -36.6044
LeftShoulder1  9.74083 -24.0706 -29.1154
LeftArm  -20.2794 -49.6153 -23.2888
LeftForeArm  21.8646 -1.51733 -5.60328
LeftHand  -0.25398 0.0180481 5.50724
RightShoulder  4.01028 12.9894 17.733
RightArm  -5.37789 56.9733 39.3881
RightForeArm  -9.13996 15.5471 7.13941
RightHand  -5.48489 14.1933 -32.1323
LeftUpLeg  -36.1566 20.4345 -4.83506
LeftLeg  10.6713 20.6168 -2.34663
LeftFoot  8.07338 -1.48042 8.34833
LeftToes  1.06244e-005 4.65854e-005 -8.18505e-006
485
root  -64.2565 40.1196 -32.1624 15.1476 2.13264 1.21732
RightUpLeg  -35.579 -26.0077 11.2155
RightLeg  18.3854 -6.98863 0.142239
RightFoot  -1.42872 0.859312 -9.98536
RightToes  0.00048216 0.542163 -0.142577
Spine  59.5496 -4.3401 6.94731
Spine1  8.09849 1.42185 -7.25497
HEad  -50.7081 25.3816 -39.1708
LeftShoulder1  10.1346 -22.867 -32.2745
LeftArm  -17.7615 -43.2356 -24.7362
LeftForeArm  19.4944 -1.14543 -5.88673
LeftHand  -0.25398 0.0180481 5.50724
RightShoulder  4.38824 13.3262 19.6324
RightArm  -1.43967 52.027 41.1019
RightForeArm  -8.94899 15.1769 7.54838
RightHand  -5.2653 13.7185 -31.6442
LeftUpLeg  -31.8203 16.1781 -1.1483
LeftLeg  8.21014 25.5981 -3.78272
LeftFoot  9.05275 -1.54025 8.24139
LeftToes  1.06244e-005 4.65854e-005 -8.18505e-006
486
root  -64.2428 40.2744 -32.1062 13.2423 2.35561 1.53136
RightUpLeg  -31.4944 -23.1283 7.26018
RightLeg  17.1618 -11.0962 0.819651
RightFoot  -1.14017 0.837361 -9.43637
RightToes  0.00048216 0.542163 -0.142577
Spine  57.5281 -4.10405 7.23802
Spine1  8.00836 1.45942 -6.87002
HEad  -51.506 28.4789 -42.1405
LeftShoulder1  10.5547 -22.0017 -35.2086
LeftArm  -16.0072 -36.8575 -24.7438
LeftForeArm  16.1334 -1.01304 -6.21964
LeftHand  -0.25398 0.0180481 5.50724
RightShoulder  4.67832 13.3388 21.4538
RightArm  0.278561 47.3338 41.7279
RightForeArm  -8.65816 14.4562 7.96489
RightHand  -5.00923 13.1445 -31.0751
LeftUpLeg  -28.6404 13.8289 0.383049
LeftLeg  6.72783 27.3617 -4.51361
LeftFoot  9.97333 -1.46792 7.4659
LeftToes  1.06244e-005 4.65854e-005 -8.18505e-006
